P2
10 10
255
0 100 255 255 255 255 255 255 255 255
255 0 255 255 255 255 255 255 255 255
255 255 0 255 255 255 255 255 255 255
255 255 255 0 255 255 255 255 255 255
255 255 255 255 0 255 255 255 255 255
255 255 255 255 255 0 255 255 255 255
255 255 255 255 255 255 0 255 255 255
255 255 255 255 255 255 255 0 255 255
255 255 255 255 255 255 255 255 0 255
255 255 255 255 255 255 255 255 255 0
